<svg width="100" height="99" viewBox="0 0 100 99" fill="none" xmlns="http://www.w3.org/2000/svg">
<path d="M11.9841 1.92822C9.41312 -0.642739 5.24478 -0.642739 2.67382 1.92822C0.102866 4.49917 0.102866 8.66751 2.67382 11.2384L40.6909 49.2555L2.67422 87.2718C0.103262 89.8428 0.103262 94.0115 2.67422 96.5825C5.24517 99.1534 9.41351 99.1534 11.9845 96.5825L50.001 58.5657L88.0178 96.5825C90.5888 99.1534 94.757 99.1534 97.328 96.5825C99.8989 94.0115 99.8989 89.8428 97.328 87.2718L59.3112 49.2555L97.3285 11.2384C99.8994 8.66751 99.8994 4.49917 97.3285 1.92822C94.7575 -0.642739 90.5893 -0.642739 88.0183 1.92822L50.001 39.9454L11.9841 1.92822Z" fill="#FFF4E7"/>
</svg>
